# xmcd
#
# Track frame offsets:
#	150
#	11041
#	28026
#	36999
#	55708
#	73197
#	88065
#	100475
#	117642
#	129663
#	141689
#	155934
#	168897
#	179667
#	196014
#	209908
#	224730
#	249464
#	266917
#	279334
#
# Disc length: 3960 seconds
#
# Revision: 4
# Processed by: cddbd v1.5.2PL0 Copyright (c) Steve Scherf et al.
# Submitted via: EasyCDDAExtractor 16.0.6.1
#
DISCID=4d0f7614
DTITLE=Ξυλούρης Νίκος - Ήτανε μιά φορά-Ν. Ξυλούρης 1
DYEAR=2004
DGENRE=Έντεχνη λαϊκή
TTITLE0=Το καφενείον η Ελλάς [Γ. Μαρκόπουλος-Κ. Χ. Μύρης]
TTITLE1=Μπήκαν στην πόλη οι οχτροί [Γ. Μαρκόπουλος-Γ. Σκούρτης]
TTITLE2=Γειά σου χαρά σου Βενετιά [Στ. Ξαρχάκος-Ν. Γκάτσος]
TTITLE3=Χίλια μύρια κύματα [Γ. Μαρκόπουλος-Κ. Χ. Μύρης]
TTITLE4=Του θάνατου παράγγειλα [Χρ. Χάλαρης-Γ. Κακουλίδης]
TTITLE5=Ήτανε μιά φορά [Στ. Ξαρχάκος-Κ. Φέρρης]
TTITLE6=Παλληκάρι στα Σφακιά (Έβαλε ο Θεός σημάδι)[Στ.Ξαρχάκος-Ν.Γκάτσος]
TTITLE7=Αυτά τα κόκκινα σημάδια [απ. Γ.Ρίτσος, Χρ. Λεοντής-Γ. Ρίτσος]
TTITLE8=Ερωτικό τραγούδι (Παλληκαρού)[Γ. Μαρκόπουλος-Κ. Χ. Μύρης]
TTITLE9=Κόσμε χρυσέ [Γ. Μαρκόπουλος]
TTITLE10=Η κόρη του πασά [Στ. Ξαρχάκος-Ν. Γκάτσος]
TTITLE11=Την εικόνα σου(Χρώματα κι αρώματα)[Γ.Μαρκόπουλος-Μιχ.Κατσαρός]
TTITLE12=Φίλοι κι αδέλφια [Στ. Ξαρχάκος-Ιακ. Καμπανέλλης]
TTITLE13=Φιλεντέμ (Μιά παντρεμένη αγαπώ)[Ν. Ξυλούρης]
TTITLE14=Δακρύζω με παράπονο [Ν. Ξυλούρης]
TTITLE15=Ανυφαντού [Ν. Ξυλούρης]
TTITLE16=Μάννα κι αν έρθουν οι φίλοι μου [Γ. Μαρκόπουλος-Ν. Ξυλούρης]
TTITLE17=Ο Διγενής [Γ. Μαρκόπουλος]
TTITLE18=Πότε θα κάνει ξαστεριά [Γ. Μαρκόπουλος]
TTITLE19=Η τζαναμπέτισσα [Ουρ. Μελαμπανάκη]
EXTD=YEAR: 2004
EXTT0=
EXTT1=
EXTT2=
EXTT3=
EXTT4=
EXTT5=
EXTT6=
EXTT7=
EXTT8=
EXTT9=
EXTT10=
EXTT11=
EXTT12=
EXTT13=
EXTT14=
EXTT15=
EXTT16=
EXTT17=
EXTT18=
EXTT19=
PLAYORDER=
